HIERARCHY
ROOT pelvis
{
  OFFSET 0 100 0
  CHANNELS 6 Xposition Yposition Zposition Zrotation Xrotation Yrotation
  JOINT pelvis_right_femur
  {
    OFFSET -10.78128 -3.44521 -0.5502486
    CHANNELS 3 Zrotation Xrotation Yrotation
    JOINT right_femur_tibia
    {
      OFFSET -0.8047443 -44.0398 -0.1307829
      CHANNELS 3 Zrotation Xrotation Yrotation
      JOINT right_tibia_foot
      {
        OFFSET 3.006224 -47.83518 -5
        CHANNELS 3 Zrotation Xrotation Yrotation
        End Site
        {
          OFFSET 0 -5 15
        }
      }
    }
  }
  JOINT pelvis_left_femur
  {
    OFFSET 10.78128 -3.44521 -0.5502486
    CHANNELS 3 Zrotation Xrotation Yrotation
    JOINT left_femur_tibia
    {
      OFFSET 0.8047443 -44.0398 -0.1307829
      CHANNELS 3 Zrotation Xrotation Yrotation
      JOINT left_tibia_foot
      {
        OFFSET -4.370144 -48.10324 -4.275266
        CHANNELS 3 Zrotation Xrotation Yrotation
        End Site
        {
          OFFSET 0 -5 15
        }
      }
    }
  }
  JOINT pelvis_spine1
  {
    OFFSET 0 6.468898 -3.129235
    CHANNELS 3 Zrotation Xrotation Yrotation
    JOINT spine1
    {
      OFFSET 0 23.15396 4.99043
      CHANNELS 3 Zrotation Xrotation Yrotation
      JOINT spine2
      {
        OFFSET 0 20.79997 -5.064912
        CHANNELS 3 Zrotation Xrotation Yrotation
        JOINT neck
        {
          OFFSET 0 14.38658 9.616178
          CHANNELS 3 Zrotation Xrotation Yrotation
          End Site
          {
            OFFSET 0 20 0
          }
        }
      }
      JOINT right_manubrium
      {
        OFFSET -5.722621 16.35077 3.967754
        CHANNELS 3 Zrotation Xrotation Yrotation
        JOINT right_clavicle
        {
          OFFSET -13.16364 1.694482 -4.693211
          CHANNELS 3 Zrotation Xrotation Yrotation
          JOINT right_humerus
          {
            OFFSET -28.5034 -0.3100689 -2.792744
            CHANNELS 3 Zrotation Xrotation Yrotation
            JOINT right_radius
            {
              OFFSET -25.15693 0.02248979 -1.271978
              CHANNELS 3 Zrotation Xrotation Yrotation
              End Site
              {
                OFFSET -15 0 0
              }
            }
          }
        }
      }
      JOINT left_manubrium
      {
        OFFSET 5.722621 16.35077 3.967754
        CHANNELS 3 Zrotation Xrotation Yrotation
        JOINT left_clavicle
        {
          OFFSET 13.16364 1.694482 -4.693211
          CHANNELS 3 Zrotation Xrotation Yrotation
          JOINT left_humerus
          {
            OFFSET 29.39168 -1.063119 -2.237045
            CHANNELS 3 Zrotation Xrotation Yrotation
            JOINT left_radius
            {
              OFFSET 24.59957 -0.9528479 0.9047498
              CHANNELS 3 Zrotation Xrotation Yrotation
              End Site
              {
                OFFSET 15 -0 -0
              }
            }
          }
        }
      }
    }
  }
}
MOTION
Frames: 11
Frame Time: 0.0416666666667
0 103.5113 0 1.034694 -0.9227263 -0.04881084 3.10641 -16.42545 8.155752 -0 35.75965 -0 -5.1797 -15.92433 -3.704343 -6.886569 11.71542 -23.19978 -0 4.907011 -0 4.489575 -19.20512 25.06428 -3.634411 -4.259453 5.403802 1.921007 7.954325 -8.323724 0.2293785 19.78007 9.395776 4.565403 -26.16919 10.24938 5.930122 -20.35931 12.6524 83.43671 33.1321 -16.35164 -0 0 21.95776 -12.93144 9.666244 6.144903 9.8719 -20.5012 4.651278 -95.03871 19.43696 22.74546 0 0 -7.341619 13.88487 16.19276 -6.320749
0.2220555 103.2966 1.628402 0.0060369 -0.5657556 -0.185624 4.432797 -19.68447 8.522631 -0 37.03568 -0 -5.92738 -14.28068 -4.153085 -6.014637 11.74818 -22.6202 -0 5.646429 -0 3.000417 -20.30474 24.08674 -3.507062 -4.033197 5.237153 2.093529 8.136171 -8.415492 0.2440342 19.71817 9.430041 4.640709 -26.28689 10.21834 5.882889 -20.03806 12.6228 83.86304 33.327 -16.93657 -0 0 20.87289 -12.8019 9.806567 6.198193 9.797205 -20.75206 4.229647 -94.46727 19.42199 21.93944 0 0 -8.726823 13.85505 15.64179 -6.033121
0.4509198 102.8297 3.631552 -0.3249048 0.329277 -0.2357776 5.083819 -24.07767 7.640285 -0 32.27482 -0 -6.31421 -12.0272 -3.765921 -5.939141 12.10966 -21.31751 -0 5.586335 -0 3.848632 -21.69072 23.41124 -3.366586 -3.391737 4.607553 2.566624 8.384239 -8.854505 0.06284827 19.41602 9.870801 5.100929 -26.65828 10.03809 5.705082 -19.20879 12.74956 84.8022 33.34199 -18.27723 -0 0 18.47245 -13.66655 10.42026 6.957952 9.868279 -21.40304 3.495403 -92.87549 19.10678 19.59381 0 0 -11.52719 13.35584 14.197 -5.530696
0.6714383 102.0594 6.142474 -0.3932879 0.8549104 -0.1769109 5.091646 -27.45477 6.00523 -0 26.57942 -0 -6.678961 -9.559996 -3.096736 -5.959339 12.72893 -19.63596 -0 5.764953 -0 4.535092 -22.60426 22.19347 -3.27123 -3.098971 4.296893 2.808607 8.501399 -9.046991 0.02998314 19.29401 10.03956 5.261538 -26.85794 10.03451 5.614875 -18.80899 12.7672 85.30508 33.3752 -19.01377 -0 0 17.24453 -13.73716 10.61857 7.127446 9.89069 -21.73806 3.080466 -92.06336 18.97041 18.36079 0 0 -13.20002 13.34555 13.53442 -5.407781
0.884513 101.0839 9.151133 -0.441128 1.641606 8.677818e-05 5.264186 -30.55429 4.98066 -0 21.24136 -0 -6.659328 -7.341447 -2.566178 -6.015301 13.36906 -18.26024 -0 6.302277 -0 5.116276 -23.30371 21.15901 -3.142113 -2.801484 4.025675 3.009419 8.653986 -9.193535 0.02095779 19.20197 10.1164 5.364643 -26.91945 9.964584 5.522618 -18.36584 12.74084 85.83711 33.47014 -19.74468 -0 0 15.93134 -13.82441 10.8464 7.325802 9.828129 -22.05745 2.579601 -91.22644 18.8743 17.18517 0 0 -14.95021 13.19423 12.82539 -5.03333
1.086114 99.99117 12.69276 -0.5460308 2.378238 0.2947908 5.557149 -33.00063 4.24197 -0 16.82527 -0 -6.574915 -5.184916 -2.080586 -5.976019 14.057 -16.98297 -0 7.502902 -0 5.361068 -23.44481 19.95604 -3.00854 -2.582687 3.860491 3.137522 8.79941 -9.261966 0.04802973 19.16037 10.08541 5.374943 -26.87837 9.883889 5.464789 -18.01759 12.68374 86.25362 33.6088 -20.29094 -0 0 14.89075 -13.77094 11.01085 7.428746 9.699966 -22.27623 2.132107 -90.59327 18.84071 16.36868 0 0 -16.35917 13.04138 12.28725 -4.591306
1.274331 98.91666 16.80411 -0.823862 3.134623 0.710087 6.182346 -34.86706 3.983184 -0 13.73452 -0 -6.524646 -3.185892 -1.679679 -5.754138 14.71758 -15.87248 -0 9.595963 -0 5.070598 -22.94671 18.48888 -2.862711 -2.396335 3.757722 3.222514 8.95607 -9.284214 0.09589928 19.15038 9.97516 5.325763 -26.75089 9.770879 5.428475 -17.70647 12.60685 86.61971 33.77889 -20.74362 -0 0 13.9639 -13.67043 11.16083 7.502293 9.509555 -22.43661 1.686525 -90.05695 18.85481 15.75477 0 0 -17.58865 12.82598 11.82187 -4.028461
1.448026 98.0013 21.51498 -1.308941 3.800213 1.225313 7.110968 -35.81026 4.121652 -0 12.29694 -0 -6.644184 -1.536678 -1.348923 -5.304689 15.21238 -14.89944 -0 12.83955 -0 4.110646 -21.56661 16.67183 -2.708839 -2.243654 3.71741 3.267208 9.122004 -9.263761 0.1605152 19.17108 9.794202 5.224912 -26.55366 9.629959 5.414931 -17.44401 12.5171 86.9261 33.96866 -21.09562 -0 0 13.1749 -13.53068 11.29251 7.544389 9.265439 -22.53528 1.256002 -89.63652 18.9216 15.35906 0 0 -18.59332 12.55435 11.44194 -3.368197
1.612775 97.39103 26.81679 -2.001581 4.321016 1.790679 8.257315 -35.53584 4.581163 -0 12.58313 -0 -7.017973 -0.5623502 -1.105156 -4.627607 15.29439 -14.07531 -0 17.49957 -0 2.394892 -19.18145 14.53161 -2.548194 -2.117325 3.734068 3.274687 9.300038 -9.206174 0.2362962 19.2205 9.551971 5.084487 -26.29326 9.456963 5.42059 -17.22554 12.41923 87.1783 34.1625 -21.35848 -0 0 12.51267 -13.38759 11.41396 7.569375 8.975658 -22.57836 0.8394024 -89.32861 19.04464 15.16564 0 0 -19.36614 12.21083 11.13585 -2.609041
1.783604 97.19426 32.63377 -2.777859 4.568311 2.306219 9.330987 -33.75305 5.10021 -0 14.12458 -0 -7.631774 -0.5317662 -0.9818094 -3.829746 14.6213 -13.31039 -0 23.81243 -0 0.06826324 -15.8535 12.26286 -2.383419 -2.016909 3.810106 3.24316 9.490553 -9.111404 0.3192492 19.2992 9.256105 4.914432 -25.97725 9.252102 5.442724 -17.05687 12.31686 87.36984 34.34458 -21.52858 -0 0 11.99355 -13.26552 11.52519 7.581584 8.651415 -22.56664 0.446027 -89.15089 19.22966 15.18509 0 0 -19.87161 11.79214 10.90589 -1.763659
1.979865 97.4609 38.80475 -3.390068 4.376704 2.629701 9.971391 -30.35365 5.399333 -0 15.91669 -0 -8.323836 -1.477509 -1.035089 -3.115452 12.8202 -12.46021 -0 31.89031 -0 -2.495328 -11.9847 10.21778 -2.216458 -1.940772 3.948198 3.170276 9.693732 -8.97793 0.4056552 19.40757 8.915405 4.725673 -25.61324 9.016515 5.476294 -16.94292 12.21264 87.49385 34.4982 -21.60246 -0 0 11.63144 -13.18851 11.62574 7.585653 8.306182 -22.50325 0.08449933 -89.11911 19.47945 15.4235 0 0 -20.0861 11.29951 10.75016 -0.8486391
